<?xml version="1.0" encoding="utf-8"?>
<svg xmlns="http://www.w3.org/2000/svg" viewBox="0 0 24 24" width="96" height="96">
  <path d="M6 2L6 6L2 6L2 8L4.9863281 8 A 1.0001 1.0001 0 0 0 6 9.0136719L6 16L2 16L2 18L4.9863281 18 A 1.0001 1.0001 0 0 0 6 19.013672L6 22L8 22L8 18L14.986328 18 A 1.0001 1.0001 0 0 0 16 19.013672L16 22L18 22L18 18L22 18L22 16L19.009766 16 A 1.0001 1.0001 0 0 0 18 14.990234L18 8L22 8L22 6L19.009766 6 A 1.0001 1.0001 0 0 0 18 4.9902344L18 2L16 2L16 6L9.0097656 6 A 1.0001 1.0001 0 0 0 8 4.9902344L8 2L6 2 z M 8 8L14.986328 8 A 1.0001 1.0001 0 0 0 16 9.0136719L16 16L9.0097656 16 A 1.0001 1.0001 0 0 0 8 14.990234L8 8 z" />
</svg>