<?xml version="1.0" encoding="utf-8"?>
<svg xmlns="http://www.w3.org/2000/svg" viewBox="0 0 24 24" width="96" height="96">
  <path d="M6 2C4.897 2 4 2.897 4 4L4 20C4 21.103 4.897 22 6 22L11.078125 22C10.719125 21.381 10.444719 20.71 10.261719 20L6 20L6 16L10.261719 16C10.699719 14.303 11.673 12.824766 13 11.759766L13 10L18 10C18.692 10 19.36 10.096719 20 10.261719L20 4C20 2.897 19.103 2 18 2L6 2 z M 6 4L11 4L11 8L6 8L6 4 z M 13 4L18 4L18 8L13 8L13 4 z M 6 10L11 10L11 14L6 14L6 10 z M 18 12C14.698136 12 12 14.698136 12 18C12 21.301864 14.698136 24 18 24C21.301864 24 24 21.301864 24 18C24 14.698136 21.301864 12 18 12 z M 18 14C20.220984 14 22 15.779016 22 18C22 20.220984 20.220984 22 18 22C15.779016 22 14 20.220984 14 18C14 15.779016 15.779016 14 18 14 z M 18.806641 15.382812C18.515453 15.3575 18.223625 15.504797 18.078125 15.779297L17.087891 17.650391C16.933891 17.941391 16.987703 18.29825 17.220703 18.53125L18.394531 19.705078C18.687531 19.998078 19.162031 19.998078 19.457031 19.705078C19.750031 19.413078 19.750031 18.937531 19.457031 18.644531L18.673828 17.861328L19.404297 16.480469C19.597297 16.114469 19.457797 15.66275 19.091797 15.46875C19.000297 15.42025 18.903703 15.39125 18.806641 15.382812 z" />
</svg>