<svg width="37" height="36" viewBox="0 0 37 36" fill="none" xmlns="http://www.w3.org/2000/svg">
<path d="M18.2366 9.21296C17.8839 8.85786 17.7058 8.40623 17.7058 7.85462C17.7058 7.30301 17.8873 6.85137 18.2366 6.49627C18.5893 6.14117 19.031 5.9619 19.5514 5.9619C20.0753 5.9619 20.517 6.14117 20.8663 6.49627C21.219 6.85137 21.3971 7.30301 21.3971 7.85462C21.3971 8.40623 21.2156 8.85786 20.8663 9.21296C20.5136 9.56806 20.0719 9.74044 19.5514 9.74044C19.0276 9.74044 18.5893 9.56806 18.2366 9.21296ZM30.0327 7.77188L32.1488 4.97244H30.8477L28.8856 7.51676V4.97244H27.7591V10.7333H28.8856V8.03389L30.9298 10.7333H32.2276L30.0327 7.77188ZM9.36122 16.5425L10.1453 18.8972H8.5771L9.36122 16.5425ZM12.0663 20.9968L10.0563 15.2359H8.65928L6.65616 20.9968H7.87515L8.21756 19.9591H10.498L10.8404 20.9968H12.0663ZM19.6268 17.9009V18.9041H21.3594C21.1539 19.5867 20.565 19.997 19.6918 19.997C19.1029 19.997 18.6304 19.8246 18.2708 19.4695C17.9181 19.1144 17.7401 18.6628 17.7401 18.1215C17.7401 17.5699 17.9113 17.1183 18.264 16.7632C18.6167 16.4012 19.0652 16.2184 19.6131 16.2184C20.2911 16.2184 20.88 16.546 21.1505 17.0183L22.1161 16.4598C21.6265 15.6461 20.6951 15.1187 19.6234 15.1187C18.7742 15.1187 18.0619 15.4083 17.4833 15.9909C16.9114 16.5735 16.6238 17.2837 16.6238 18.1215C16.6238 18.9524 16.9114 19.6591 17.4901 20.2452C18.0688 20.821 18.805 21.1105 19.6884 21.1105C20.5136 21.1105 21.1916 20.8554 21.7155 20.3452C22.2394 19.8349 22.4996 19.1696 22.4996 18.3456V17.9009H19.6268ZM29.3547 18.618H31.5222V17.5492H29.3547V16.3219H31.7242V15.2359H28.2248V20.9968H31.7653V19.9108H29.3547V18.618ZM10.4535 29.0089L8.00184 25.4959H7.14238V31.2568H8.26892V27.7333L10.7206 31.2568H11.5801V25.4959H10.4535V29.0089ZM18.1715 30.1708V26.5819H19.3152C19.8151 26.5819 20.2157 26.7473 20.5239 27.0852C20.8355 27.4162 20.9896 27.8437 20.9896 28.378C20.9896 28.9124 20.8355 29.3399 20.5239 29.6778C20.2123 30.0087 19.8117 30.1708 19.3152 30.1708H18.1715ZM17.0416 31.2568H19.3152C20.0993 31.2568 20.7533 30.9775 21.2772 30.4259C21.8079 29.8743 22.0716 29.1917 22.0716 28.378C22.0716 27.5644 21.8114 26.8818 21.2772 26.3302C20.7533 25.7786 20.0993 25.4993 19.3152 25.4993H17.0416V31.2568ZM29.9951 26.8059L30.7792 29.1606H29.2109L29.9951 26.8059ZM32.7001 31.2568L30.6902 25.4959H29.2931L27.29 31.2568H28.509L28.8514 30.219H31.1319L31.4743 31.2568H32.7001ZM35.4805 34.0872H36.6687V35.2835H35.4805V34.0872ZM0.0304565 10.3507H2.43762V13.3363H0.0304565V14.5326H2.43762V17.5182H0.0304565V18.7145H2.43762V21.7001H0.0304565V22.8964H2.43762V25.882H0.0304565V27.0783H2.43762V30.0639H0.0304565V31.2602H2.43762V35.287H32.6693V34.0872H3.6258V31.2568H4.84821V30.0605H3.6258V27.0749H4.84821V25.8785H3.6258V22.8929H4.84821V21.6966H3.6258V18.711H4.84821V17.5147H3.6258V14.5291H4.84821V13.3328H3.6258V10.3472H4.84821V9.15091H3.6258V6.16531H4.84821V4.969H3.6258V2.01442H35.4805V31.2568H36.6687V0.818115H3.03342H2.43762V4.97589H0.0304565V6.1722H2.43762V9.1578H0.0304565V10.3507ZM7.70737 4.97589V10.7368H11.0185V9.65081H8.83733V4.97589H7.70737ZM21.6607 9.98867C22.2394 9.40603 22.527 8.69583 22.527 7.85807C22.527 7.0203 22.2394 6.3101 21.6607 5.73436C21.082 5.15172 20.3767 4.86212 19.5514 4.86212C18.7262 4.86212 18.0243 5.15172 17.4422 5.73436C16.8703 6.3101 16.5827 7.01686 16.5827 7.85807C16.5827 8.69583 16.8703 9.40603 17.4422 9.98867C18.0209 10.5644 18.7262 10.854 19.5514 10.854C20.3767 10.8506 21.082 10.5644 21.6607 9.98867Z" fill="black"/>
</svg>
