<svg width="512" height="512" viewBox="0 0 512 512" fill="none" xmlns="http://www.w3.org/2000/svg">
<path d="M256 128C212 128 176 164 176 208C176 232.25 187.312 253.812 204.5 268.5C187.438 277.438 172.5 290.938 162 307C156.312 298.75 148.812 291.125 140.5 285.5C152.375 273.875 160 257.812 160 240C160 204.812 131.188 176 96 176C60.8125 176 32 204.812 32 240C32 257.812 39.625 273.875 51.5 285.5C30.1875 299.938 16 324.562 16 352H48C48 325.5 69.5 304 96 304C122.5 304 144 325.5 144 352V368H176C176 323.938 211.938 288 256 288C300.062 288 336 323.938 336 368H368V352C368 325.5 389.5 304 416 304C442.5 304 464 325.5 464 352H496C496 324.562 481.812 299.938 460.5 285.5C472.375 273.875 480 257.812 480 240C480 204.812 451.188 176 416 176C380.812 176 352 204.812 352 240C352 257.812 359.625 273.875 371.5 285.5C363.188 291.125 355.688 298.75 350 307C339.5 290.938 324.562 277.438 307.5 268.5C324.688 253.812 336 232.25 336 208C336 164 300 128 256 128ZM256 160C282.688 160 304 181.312 304 208C304 234.688 282.688 256 256 256C229.312 256 208 234.688 208 208C208 181.312 229.312 160 256 160ZM96 208C113.875 208 128 222.125 128 240C128 257.875 113.875 272 96 272C78.125 272 64 257.875 64 240C64 222.125 78.125 208 96 208ZM416 208C433.875 208 448 222.125 448 240C448 257.875 433.875 272 416 272C398.125 272 384 257.875 384 240C384 222.125 398.125 208 416 208Z" fill="#57528F"/>
</svg>
