<svg width="512" height="512" viewBox="0 0 512 512" fill="none" xmlns="http://www.w3.org/2000/svg">
<path d="M144 112C91.1875 112 48 155.188 48 208C48 239.75 63.625 268 87.5 285.5C45.3125 306.438 16 349.812 16 400H48C48 346.812 90.8125 304 144 304C197.188 304 240 346.812 240 400H272C272 346.812 314.812 304 368 304C421.188 304 464 346.812 464 400H496C496 349.812 466.688 306.438 424.5 285.5C448.375 268 464 239.75 464 208C464 155.188 420.812 112 368 112C315.188 112 272 155.188 272 208C272 239.75 287.625 268 311.5 285.5C288.188 297.062 268.625 315.312 256 338C243.375 315.312 223.812 297.062 200.5 285.5C224.375 268 240 239.75 240 208C240 155.188 196.812 112 144 112ZM144 144C179.562 144 208 172.438 208 208C208 243.562 179.562 272 144 272C108.438 272 80 243.562 80 208C80 172.438 108.438 144 144 144ZM368 144C403.562 144 432 172.438 432 208C432 243.562 403.562 272 368 272C332.438 272 304 243.562 304 208C304 172.438 332.438 144 368 144Z" fill="#57528F"/>
</svg>
