<svg width="519" height="184" viewBox="0 0 519 184" fill="none" xmlns="http://www.w3.org/2000/svg">
<path d="M290.91 0.208069C290.543 0.208069 290.195 0.264589 289.856 0.434145L232.085 29.3719C231.267 29.7864 230.732 30.6436 230.732 31.5573C230.733 32.471 231.27 33.3282 232.089 33.7427L240.37 37.8874L240.401 73.0046C237.617 74.0125 235.587 76.6501 235.59 79.7869C235.593 82.8578 239.285 88.5003 240.867 90.7893L242.827 93.6529L244.781 90.7893C246.359 88.5003 250.042 82.8578 250.039 79.7869C250.036 76.6501 248.002 74.0125 245.217 73.0046L245.189 40.2989L250.007 42.7104L250.002 36.3803C249.995 28.0154 262.015 26.3199 267.151 25.604C274.892 24.5301 284.355 24.3229 290.93 24.3229C297.506 24.3229 306.969 24.5301 314.712 25.604C319.849 26.3199 331.872 28.0154 331.88 36.3803L331.885 42.7104L349.788 33.7427C350.606 33.3377 351.142 32.471 351.141 31.5573C351.14 30.6436 350.603 29.7864 349.784 29.3719L291.963 0.434145C291.625 0.264589 291.276 0.208069 290.91 0.208069ZM290.934 29.1458C277.445 29.1458 254.813 30.0878 254.818 36.3803L254.828 47.6087C259.83 45.4704 270.045 43.6147 290.947 43.6147C311.849 43.6147 322.067 45.4704 327.073 47.6087L327.063 36.3803C327.058 30.0878 304.424 29.1458 290.934 29.1458ZM290.951 48.4377C265.929 48.4377 255.527 51.3861 254.833 53.2606C254.876 59.5342 277.481 60.4951 290.961 60.4951C304.159 60.4951 326.058 59.5719 327.003 53.6374C327.031 53.4961 327.078 53.4019 327.078 53.2606C326.427 51.4143 316.03 48.4377 290.951 48.4377Z" fill="white"/>
<path d="M32.4033 182.15C30.359 182.15 28.1359 181.971 25.7339 181.613C23.383 181.307 21.0065 180.617 18.6045 179.543C16.2536 178.47 13.9793 176.963 11.7817 175.021C9.63525 173.027 7.71875 170.421 6.03223 167.201C4.39681 163.981 3.06803 160.021 2.0459 155.319C1.07487 150.566 0.589355 144.919 0.589355 138.377V91.9976C0.589355 85.4048 1.10042 79.783 2.12256 75.1323C3.14469 70.4305 4.49902 66.4953 6.18555 63.3267C7.87207 60.1069 9.81413 57.5516 12.0117 55.6606C14.2093 53.7697 16.4836 52.3387 18.8345 51.3677C21.1854 50.3455 23.5107 49.6812 25.8105 49.3745C28.1615 49.0679 30.3335 48.9146 32.3267 48.9146C37.5396 48.9146 41.8836 49.6556 45.3589 51.1377C48.8853 52.5687 51.6961 54.5618 53.7915 57.1172C55.938 59.6214 57.4456 62.5601 58.3145 65.9331C59.2344 69.3062 59.6943 72.8836 59.6943 76.6655C59.6943 79.4764 59.541 82.0828 59.2344 84.4849C58.9788 86.8358 58.57 89.4422 58.0078 92.3042H41.9092V85.6348C41.9092 78.4287 41.117 73.0369 39.5327 69.4595C37.9484 65.882 35.623 64.0933 32.5566 64.0933C30.7168 64.0933 29.1069 64.451 27.7271 65.1665C26.3472 65.882 25.1973 67.1086 24.2773 68.8462C23.3574 70.5327 22.6419 72.7814 22.1309 75.5923C21.6709 78.4032 21.4409 81.904 21.4409 86.0947V145.89C21.4409 149.978 21.6198 153.377 21.9775 156.085C22.3864 158.794 23.0252 160.966 23.894 162.602C24.7629 164.237 25.8872 165.412 27.2671 166.128C28.6981 166.792 30.4102 167.125 32.4033 167.125C33.681 167.125 34.9076 166.843 36.083 166.281C37.2585 165.668 38.2806 164.748 39.1494 163.521C40.0693 162.244 40.7848 160.66 41.2959 158.769C41.8581 156.826 42.1392 154.552 42.1392 151.946V139.144H60.3076V151.256C60.3076 161.784 57.9056 169.552 53.1016 174.561C48.2975 179.569 41.3981 182.099 32.4033 182.15Z" fill="white"/>
<path d="M95.0684 50.0645H117.913L142.138 181H122.053L118.45 157.542H94.5318L91.0821 181H70.9204L95.0684 50.0645ZM116.15 142.593L106.951 77.3555H106.107L96.8316 142.593H116.15Z" fill="white"/>
<path d="M159.573 50.0645H181.115C183.568 50.0645 186.251 50.1667 189.164 50.3711C192.128 50.5755 195.067 51.0866 197.98 51.9043C200.944 52.6709 203.781 53.8464 206.489 55.4307C209.249 57.015 211.677 59.187 213.772 61.9468C215.919 64.7065 217.631 68.1818 218.908 72.3726C220.186 76.5122 220.825 81.5462 220.825 87.4746V90.771C220.825 100.737 219.394 108.863 216.532 115.149C213.67 121.384 209.454 125.881 203.883 128.641L224.888 181H203.883L186.481 132.014H179.045V181H159.573V50.0645ZM182.035 117.679C185.51 117.679 188.449 117.295 190.851 116.529C193.253 115.762 195.195 114.485 196.677 112.696C198.159 110.856 199.232 108.454 199.897 105.49C200.561 102.474 200.893 98.7692 200.893 94.374V84.0249C200.893 80.6519 200.587 77.7388 199.973 75.2856C199.36 72.8325 198.312 70.8138 196.83 69.2295C195.399 67.6452 193.483 66.4697 191.081 65.7031C188.679 64.9365 185.663 64.5532 182.035 64.5532H179.045V117.679H182.035Z" fill="white"/>
<path d="M291.521 183.355C281.263 183.355 272.262 181.157 264.517 176.761C256.876 172.26 250.962 165.719 246.776 157.136C242.589 148.553 240.496 138.191 240.496 126.05C240.496 113.909 242.589 103.547 246.776 94.964C250.962 86.3813 256.876 79.892 264.517 75.496C272.262 70.9953 281.263 68.745 291.521 68.745C301.778 68.745 310.727 70.9953 318.368 75.496C326.113 79.892 332.079 86.3813 336.266 94.964C340.452 103.547 342.546 113.909 342.546 126.05C342.546 138.191 340.452 148.553 336.266 157.136C332.079 165.719 326.113 172.26 318.368 176.761C310.727 181.157 301.778 183.355 291.521 183.355ZM291.521 180.215C295.603 180.215 299.371 178.488 302.825 175.034C306.383 171.58 309.314 165.823 311.617 157.764C313.919 149.705 315.071 139.133 315.071 126.05C315.071 112.967 313.919 102.395 311.617 94.336C309.314 86.2767 306.383 80.52 302.825 77.066C299.371 73.612 295.603 71.885 291.521 71.885C287.439 71.885 283.618 73.612 280.06 77.066C276.606 80.52 273.727 86.2767 271.425 94.336C269.122 102.395 267.971 112.967 267.971 126.05C267.971 139.133 269.122 149.705 271.425 157.764C273.727 165.823 276.606 171.58 280.06 175.034C283.618 178.488 287.439 180.215 291.521 180.215Z" fill="white"/>
<path d="M365.55 50.0645H381.649L413.386 137.687H413.846C413.693 135.643 413.488 133.368 413.233 130.864C412.977 128.36 412.747 125.524 412.543 122.355C412.338 119.135 412.159 115.507 412.006 111.469C411.853 107.432 411.776 102.883 411.776 97.8237V50.0645H429.561V181H413.309L381.725 95.6772H381.112C381.265 97.9771 381.47 100.481 381.725 103.19C381.981 105.847 382.211 108.991 382.415 112.619C382.62 116.248 382.798 120.49 382.952 125.345C383.105 130.149 383.182 135.873 383.182 142.517V181H365.55V50.0645Z" fill="white"/>
<path d="M483.18 182.227C481.647 182.227 479.858 182.048 477.814 181.69C475.77 181.383 473.649 180.693 471.451 179.62C469.305 178.547 467.184 177.039 465.089 175.097C462.993 173.104 461.102 170.498 459.416 167.278C457.78 164.007 456.452 160.021 455.429 155.319C454.407 150.566 453.896 144.919 453.896 138.377V91.9976C453.896 85.4048 454.433 79.783 455.506 75.1323C456.579 70.4305 458.01 66.4953 459.799 63.3267C461.588 60.1069 463.632 57.5516 465.932 55.6606C468.283 53.7697 470.71 52.3387 473.215 51.3677C475.719 50.3455 478.197 49.6812 480.651 49.3745C483.104 49.0679 485.378 48.9146 487.473 48.9146C492.788 48.9146 497.26 49.6556 500.889 51.1377C504.569 52.5687 507.533 54.5618 509.781 57.1172C512.081 59.6214 513.717 62.5601 514.688 65.9331C515.71 69.3062 516.221 72.8836 516.221 76.6655C516.221 79.4764 516.042 82.0828 515.684 84.4849C515.378 86.8358 514.943 89.4422 514.381 92.3042H498.512V86.0947C498.512 71.7337 494.654 64.5532 486.937 64.5532C484.841 64.5532 483.027 64.911 481.494 65.6265C479.961 66.342 478.683 67.5685 477.661 69.3062C476.639 70.9927 475.872 73.2414 475.361 76.0522C474.901 78.8631 474.671 82.3639 474.671 86.5547V145.89C474.671 149.978 474.901 153.377 475.361 156.085C475.872 158.794 476.613 160.966 477.584 162.602C478.606 164.237 479.858 165.412 481.341 166.128C482.874 166.792 484.688 167.125 486.783 167.125C488.981 167.125 490.872 166.562 492.456 165.438C494.041 164.263 495.344 162.678 496.366 160.685C497.388 158.692 498.129 156.341 498.589 153.632C499.1 150.924 499.356 147.985 499.356 144.816V127.721H489.16V114.689H518.674V181H505.488L503.342 168.581C500.838 173.436 497.95 176.937 494.679 179.083C491.46 181.179 487.627 182.227 483.18 182.227Z" fill="white"/>
</svg>
