<svg width="533" height="308" viewBox="0 0 533 308" fill="none" xmlns="http://www.w3.org/2000/svg">
<path d="M297.91 88.2081C297.543 88.2081 297.195 88.2646 296.856 88.4341L239.085 117.372C238.267 117.786 237.732 118.644 237.732 119.557C237.733 120.471 238.27 121.328 239.089 121.743L247.37 125.887L247.401 161.005C244.617 162.013 242.587 164.65 242.59 167.787C242.593 170.858 246.285 176.5 247.867 178.789L249.827 181.653L251.781 178.789C253.359 176.5 257.042 170.858 257.039 167.787C257.036 164.65 255.002 162.013 252.217 161.005L252.189 128.299L257.007 130.71L257.002 124.38C256.995 116.015 269.015 114.32 274.151 113.604C281.892 112.53 291.355 112.323 297.93 112.323C304.506 112.323 313.969 112.53 321.712 113.604C326.849 114.32 338.872 116.015 338.88 124.38L338.885 130.71L356.788 121.743C357.606 121.338 358.142 120.471 358.141 119.557C358.14 118.644 357.603 117.786 356.784 117.372L298.963 88.4341C298.625 88.2646 298.276 88.2081 297.91 88.2081ZM297.934 117.146C284.445 117.146 261.813 118.088 261.818 124.38L261.828 135.609C266.83 133.47 277.045 131.615 297.947 131.615C318.849 131.615 329.067 133.47 334.073 135.609L334.063 124.38C334.058 118.088 311.424 117.146 297.934 117.146ZM297.951 136.438C272.929 136.438 262.527 139.386 261.833 141.261C261.876 147.534 284.481 148.495 297.961 148.495C311.159 148.495 333.058 147.572 334.003 141.637C334.031 141.496 334.078 141.402 334.078 141.261C333.427 139.414 323.03 136.438 297.951 136.438Z" fill="#5B5B5B"/>
<path d="M39.4033 270.15C37.359 270.15 35.1359 269.971 32.7339 269.613C30.383 269.307 28.0065 268.617 25.6045 267.543C23.2536 266.47 20.9793 264.963 18.7817 263.021C16.6353 261.027 14.7188 258.421 13.0322 255.201C11.3968 251.981 10.068 248.021 9.0459 243.319C8.07487 238.566 7.58936 232.919 7.58936 226.377V179.998C7.58936 173.405 8.10042 167.783 9.12256 163.132C10.1447 158.431 11.499 154.495 13.1855 151.327C14.8721 148.107 16.8141 145.552 19.0117 143.661C21.2093 141.77 23.4836 140.339 25.8345 139.368C28.1854 138.346 30.5107 137.681 32.8105 137.375C35.1615 137.068 37.3335 136.915 39.3267 136.915C44.5396 136.915 48.8836 137.656 52.3589 139.138C55.8853 140.569 58.6961 142.562 60.7915 145.117C62.938 147.621 64.4456 150.56 65.3145 153.933C66.2344 157.306 66.6943 160.884 66.6943 164.666C66.6943 167.476 66.541 170.083 66.2344 172.485C65.9788 174.836 65.57 177.442 65.0078 180.304H48.9092V173.635C48.9092 166.429 48.117 161.037 46.5327 157.459C44.9484 153.882 42.623 152.093 39.5566 152.093C37.7168 152.093 36.1069 152.451 34.7271 153.167C33.3472 153.882 32.1973 155.109 31.2773 156.846C30.3574 158.533 29.6419 160.781 29.1309 163.592C28.6709 166.403 28.4409 169.904 28.4409 174.095V233.89C28.4409 237.978 28.6198 241.377 28.9775 244.085C29.3864 246.794 30.0252 248.966 30.894 250.602C31.7629 252.237 32.8872 253.412 34.2671 254.128C35.6981 254.792 37.4102 255.125 39.4033 255.125C40.681 255.125 41.9076 254.843 43.083 254.281C44.2585 253.668 45.2806 252.748 46.1494 251.521C47.0693 250.244 47.7848 248.66 48.2959 246.769C48.8581 244.826 49.1392 242.552 49.1392 239.946V227.144H67.3076V239.256C67.3076 249.784 64.9056 257.552 60.1016 262.561C55.2975 267.569 48.3981 270.099 39.4033 270.15ZM102.068 138.064H124.913L149.138 269H129.053L125.45 245.542H101.532L98.0821 269H77.9204L102.068 138.064ZM123.15 230.593L113.951 165.355H113.107L103.832 230.593H123.15ZM166.573 138.064H188.115C190.568 138.064 193.251 138.167 196.164 138.371C199.128 138.576 202.067 139.087 204.98 139.904C207.944 140.671 210.781 141.846 213.489 143.431C216.249 145.015 218.677 147.187 220.772 149.947C222.919 152.707 224.631 156.182 225.908 160.373C227.186 164.512 227.825 169.546 227.825 175.475V178.771C227.825 188.737 226.394 196.863 223.532 203.149C220.67 209.384 216.454 213.881 210.883 216.641L231.888 269H210.883L193.481 220.014H186.045V269H166.573V138.064ZM189.035 205.679C192.51 205.679 195.449 205.295 197.851 204.529C200.253 203.762 202.195 202.485 203.677 200.696C205.159 198.856 206.232 196.454 206.897 193.49C207.561 190.474 207.893 186.769 207.893 182.374V172.025C207.893 168.652 207.587 165.739 206.973 163.286C206.36 160.833 205.312 158.814 203.83 157.229C202.399 155.645 200.483 154.47 198.081 153.703C195.679 152.937 192.663 152.553 189.035 152.553H186.045V205.679H189.035ZM298.521 271.355C288.263 271.355 279.262 269.157 271.517 264.761C263.876 260.26 257.962 253.719 253.776 245.136C249.589 236.553 247.496 226.191 247.496 214.05C247.496 201.909 249.589 191.547 253.776 182.964C257.962 174.381 263.876 167.892 271.517 163.496C279.262 158.995 288.263 156.745 298.521 156.745C308.778 156.745 317.727 158.995 325.368 163.496C333.113 167.892 339.079 174.381 343.266 182.964C347.452 191.547 349.546 201.909 349.546 214.05C349.546 226.191 347.452 236.553 343.266 245.136C339.079 253.719 333.113 260.26 325.368 264.761C317.727 269.157 308.778 271.355 298.521 271.355ZM298.521 268.215C302.603 268.215 306.371 266.488 309.825 263.034C313.383 259.58 316.314 253.823 318.617 245.764C320.919 237.705 322.071 227.133 322.071 214.05C322.071 200.967 320.919 190.395 318.617 182.336C316.314 174.277 313.383 168.52 309.825 165.066C306.371 161.612 302.603 159.885 298.521 159.885C294.439 159.885 290.618 161.612 287.06 165.066C283.606 168.52 280.727 174.277 278.425 182.336C276.122 190.395 274.971 200.967 274.971 214.05C274.971 227.133 276.122 237.705 278.425 245.764C280.727 253.823 283.606 259.58 287.06 263.034C290.618 266.488 294.439 268.215 298.521 268.215ZM372.55 138.064H388.649L420.386 225.687H420.846C420.693 223.643 420.488 221.368 420.233 218.864C419.977 216.36 419.747 213.524 419.543 210.355C419.338 207.135 419.159 203.507 419.006 199.469C418.853 195.432 418.776 190.883 418.776 185.824V138.064H436.561V269H420.309L388.725 183.677H388.112C388.265 185.977 388.47 188.481 388.725 191.19C388.981 193.847 389.211 196.991 389.415 200.619C389.62 204.248 389.798 208.49 389.952 213.345C390.105 218.149 390.182 223.873 390.182 230.517V269H372.55V138.064ZM490.18 270.227C488.647 270.227 486.858 270.048 484.814 269.69C482.77 269.383 480.649 268.693 478.451 267.62C476.305 266.547 474.184 265.039 472.089 263.097C469.993 261.104 468.102 258.498 466.416 255.278C464.78 252.007 463.452 248.021 462.429 243.319C461.407 238.566 460.896 232.919 460.896 226.377V179.998C460.896 173.405 461.433 167.783 462.506 163.132C463.579 158.431 465.01 154.495 466.799 151.327C468.588 148.107 470.632 145.552 472.932 143.661C475.283 141.77 477.71 140.339 480.215 139.368C482.719 138.346 485.197 137.681 487.651 137.375C490.104 137.068 492.378 136.915 494.473 136.915C499.788 136.915 504.26 137.656 507.889 139.138C511.569 140.569 514.533 142.562 516.781 145.117C519.081 147.621 520.717 150.56 521.688 153.933C522.71 157.306 523.221 160.884 523.221 164.666C523.221 167.476 523.042 170.083 522.684 172.485C522.378 174.836 521.943 177.442 521.381 180.304H505.512V174.095C505.512 159.734 501.654 152.553 493.937 152.553C491.841 152.553 490.027 152.911 488.494 153.626C486.961 154.342 485.683 155.569 484.661 157.306C483.639 158.993 482.872 161.241 482.361 164.052C481.901 166.863 481.671 170.364 481.671 174.555V233.89C481.671 237.978 481.901 241.377 482.361 244.085C482.872 246.794 483.613 248.966 484.584 250.602C485.606 252.237 486.858 253.412 488.341 254.128C489.874 254.792 491.688 255.125 493.783 255.125C495.981 255.125 497.872 254.562 499.456 253.438C501.041 252.263 502.344 250.678 503.366 248.685C504.388 246.692 505.129 244.341 505.589 241.632C506.1 238.924 506.356 235.985 506.356 232.816V215.721H496.16V202.689H525.674V269H512.488L510.342 256.581C507.838 261.436 504.95 264.937 501.679 267.083C498.46 269.179 494.627 270.227 490.18 270.227Z" fill="black"/>
</svg>
