<svg width="533" height="220" viewBox="0 0 533 220" fill="none" xmlns="http://www.w3.org/2000/svg">
<path d="M297.91 0.208069C297.543 0.208069 297.195 0.264589 296.856 0.434145L239.085 29.3719C238.267 29.7864 237.732 30.6436 237.732 31.5573C237.733 32.471 238.27 33.3282 239.089 33.7427L247.37 37.8874L247.401 73.0046C244.617 74.0125 242.587 76.6501 242.59 79.7869C242.593 82.8578 246.285 88.5003 247.867 90.7893L249.827 93.6529L251.781 90.7893C253.359 88.5003 257.042 82.8578 257.039 79.7869C257.036 76.6501 255.002 74.0125 252.217 73.0046L252.189 40.2989L257.007 42.7104L257.002 36.3803C256.995 28.0154 269.015 26.3199 274.151 25.604C281.892 24.5301 291.355 24.3229 297.93 24.3229C304.506 24.3229 313.969 24.5301 321.712 25.604C326.849 26.3199 338.872 28.0154 338.88 36.3803L338.885 42.7104L356.788 33.7427C357.606 33.3377 358.142 32.471 358.141 31.5573C358.14 30.6436 357.603 29.7864 356.784 29.3719L298.963 0.434145C298.625 0.264589 298.276 0.208069 297.91 0.208069ZM297.934 29.1458C284.445 29.1458 261.813 30.0878 261.818 36.3803L261.828 47.6087C266.83 45.4704 277.045 43.6147 297.947 43.6147C318.849 43.6147 329.067 45.4704 334.073 47.6087L334.063 36.3803C334.058 30.0878 311.424 29.1458 297.934 29.1458ZM297.951 48.4377C272.929 48.4377 262.527 51.3861 261.833 53.2606C261.876 59.5342 284.481 60.4951 297.961 60.4951C311.159 60.4951 333.058 59.5719 334.003 53.6374C334.031 53.4961 334.078 53.4019 334.078 53.2606C333.427 51.4143 323.03 48.4377 297.951 48.4377Z" fill="#5B5B5B"/>
<path d="M39.4033 182.15C37.359 182.15 35.1359 181.971 32.7339 181.613C30.383 181.307 28.0065 180.617 25.6045 179.543C23.2536 178.47 20.9793 176.963 18.7817 175.021C16.6353 173.027 14.7188 170.421 13.0322 167.201C11.3968 163.981 10.068 160.021 9.0459 155.319C8.07487 150.566 7.58936 144.919 7.58936 138.377V91.9976C7.58936 85.4048 8.10042 79.783 9.12256 75.1323C10.1447 70.4305 11.499 66.4953 13.1855 63.3267C14.8721 60.1069 16.8141 57.5516 19.0117 55.6606C21.2093 53.7697 23.4836 52.3387 25.8345 51.3677C28.1854 50.3455 30.5107 49.6812 32.8105 49.3745C35.1615 49.0679 37.3335 48.9146 39.3267 48.9146C44.5396 48.9146 48.8836 49.6556 52.3589 51.1377C55.8853 52.5687 58.6961 54.5618 60.7915 57.1172C62.938 59.6214 64.4456 62.5601 65.3145 65.9331C66.2344 69.3062 66.6943 72.8836 66.6943 76.6655C66.6943 79.4764 66.541 82.0828 66.2344 84.4849C65.9788 86.8358 65.57 89.4422 65.0078 92.3042H48.9092V85.6348C48.9092 78.4287 48.117 73.0369 46.5327 69.4595C44.9484 65.882 42.623 64.0933 39.5566 64.0933C37.7168 64.0933 36.1069 64.451 34.7271 65.1665C33.3472 65.882 32.1973 67.1086 31.2773 68.8462C30.3574 70.5327 29.6419 72.7814 29.1309 75.5923C28.6709 78.4032 28.4409 81.904 28.4409 86.0947V145.89C28.4409 149.978 28.6198 153.377 28.9775 156.085C29.3864 158.794 30.0252 160.966 30.894 162.602C31.7629 164.237 32.8872 165.412 34.2671 166.128C35.6981 166.792 37.4102 167.125 39.4033 167.125C40.681 167.125 41.9076 166.843 43.083 166.281C44.2585 165.668 45.2806 164.748 46.1494 163.521C47.0693 162.244 47.7848 160.66 48.2959 158.769C48.8581 156.826 49.1392 154.552 49.1392 151.946V139.144H67.3076V151.256C67.3076 161.784 64.9056 169.552 60.1016 174.561C55.2975 179.569 48.3981 182.099 39.4033 182.15ZM102.068 50.0645H124.913L149.138 181H129.053L125.45 157.542H101.532L98.0821 181H77.9204L102.068 50.0645ZM123.15 142.593L113.951 77.3555H113.107L103.832 142.593H123.15ZM166.573 50.0645H188.115C190.568 50.0645 193.251 50.1667 196.164 50.3711C199.128 50.5755 202.067 51.0866 204.98 51.9043C207.944 52.6709 210.781 53.8464 213.489 55.4307C216.249 57.015 218.677 59.187 220.772 61.9468C222.919 64.7065 224.631 68.1818 225.908 72.3726C227.186 76.5122 227.825 81.5462 227.825 87.4746V90.771C227.825 100.737 226.394 108.863 223.532 115.149C220.67 121.384 216.454 125.881 210.883 128.641L231.888 181H210.883L193.481 132.014H186.045V181H166.573V50.0645ZM189.035 117.679C192.51 117.679 195.449 117.295 197.851 116.529C200.253 115.762 202.195 114.485 203.677 112.696C205.159 110.856 206.232 108.454 206.897 105.49C207.561 102.474 207.893 98.7692 207.893 94.374V84.0249C207.893 80.6519 207.587 77.7388 206.973 75.2856C206.36 72.8325 205.312 70.8138 203.83 69.2295C202.399 67.6452 200.483 66.4697 198.081 65.7031C195.679 64.9365 192.663 64.5532 189.035 64.5532H186.045V117.679H189.035ZM372.55 50.0645H388.649L420.386 137.687H420.846C420.693 135.643 420.488 133.368 420.233 130.864C419.977 128.36 419.747 125.524 419.543 122.355C419.338 119.135 419.159 115.507 419.006 111.469C418.853 107.432 418.776 102.883 418.776 97.8237V50.0645H436.561V181H420.309L388.725 95.6772H388.112C388.265 97.9771 388.47 100.481 388.725 103.19C388.981 105.847 389.211 108.991 389.415 112.619C389.62 116.248 389.798 120.49 389.952 125.345C390.105 130.149 390.182 135.873 390.182 142.517V181H372.55V50.0645ZM490.18 182.227C488.647 182.227 486.858 182.048 484.814 181.69C482.77 181.383 480.649 180.693 478.451 179.62C476.305 178.547 474.184 177.039 472.089 175.097C469.993 173.104 468.102 170.498 466.416 167.278C464.78 164.007 463.452 160.021 462.429 155.319C461.407 150.566 460.896 144.919 460.896 138.377V91.9976C460.896 85.4048 461.433 79.783 462.506 75.1323C463.579 70.4305 465.01 66.4953 466.799 63.3267C468.588 60.1069 470.632 57.5516 472.932 55.6606C475.283 53.7697 477.71 52.3387 480.215 51.3677C482.719 50.3455 485.197 49.6812 487.651 49.3745C490.104 49.0679 492.378 48.9146 494.473 48.9146C499.788 48.9146 504.26 49.6556 507.889 51.1377C511.569 52.5687 514.533 54.5618 516.781 57.1172C519.081 59.6214 520.717 62.5601 521.688 65.9331C522.71 69.3062 523.221 72.8836 523.221 76.6655C523.221 79.4764 523.042 82.0828 522.684 84.4849C522.378 86.8358 521.943 89.4422 521.381 92.3042H505.512V86.0947C505.512 71.7337 501.654 64.5532 493.937 64.5532C491.841 64.5532 490.027 64.911 488.494 65.6265C486.961 66.342 485.683 67.5685 484.661 69.3062C483.639 70.9927 482.872 73.2414 482.361 76.0522C481.901 78.8631 481.671 82.3639 481.671 86.5547V145.89C481.671 149.978 481.901 153.377 482.361 156.085C482.872 158.794 483.613 160.966 484.584 162.602C485.606 164.237 486.858 165.412 488.341 166.128C489.874 166.792 491.688 167.125 493.783 167.125C495.981 167.125 497.872 166.562 499.456 165.438C501.041 164.263 502.344 162.678 503.366 160.685C504.388 158.692 505.129 156.341 505.589 153.632C506.1 150.924 506.356 147.985 506.356 144.816V127.721H496.16V114.689H525.674V181H512.488L510.342 168.581C507.838 173.436 504.95 176.937 501.679 179.083C498.46 181.179 494.627 182.227 490.18 182.227Z" fill="#57528F"/>
<path d="M298.521 183.355C288.263 183.355 279.262 181.157 271.517 176.761C263.876 172.26 257.962 165.719 253.776 157.136C249.589 148.553 247.496 138.191 247.496 126.05C247.496 113.909 249.589 103.547 253.776 94.964C257.962 86.3813 263.876 79.892 271.517 75.496C279.262 70.9953 288.263 68.745 298.521 68.745C308.778 68.745 317.727 70.9953 325.368 75.496C333.113 79.892 339.079 86.3813 343.266 94.964C347.452 103.547 349.546 113.909 349.546 126.05C349.546 138.191 347.452 148.553 343.266 157.136C339.079 165.719 333.113 172.26 325.368 176.761C317.727 181.157 308.778 183.355 298.521 183.355ZM298.521 180.215C302.603 180.215 306.371 178.488 309.825 175.034C313.383 171.58 316.314 165.823 318.617 157.764C320.919 149.705 322.071 139.133 322.071 126.05C322.071 112.967 320.919 102.395 318.617 94.336C316.314 86.2767 313.383 80.52 309.825 77.066C306.371 73.612 302.603 71.885 298.521 71.885C294.439 71.885 290.618 73.612 287.06 77.066C283.606 80.52 280.727 86.2767 278.425 94.336C276.122 102.395 274.971 112.967 274.971 126.05C274.971 139.133 276.122 149.705 278.425 157.764C280.727 165.823 283.606 171.58 287.06 175.034C290.618 178.488 294.439 180.215 298.521 180.215Z" fill="#FFD46E"/>
</svg>
