<svg width="480" height="480" viewBox="0 0 480 480" fill="none" xmlns="http://www.w3.org/2000/svg">
<path d="M250 340L240 360L230 340L220 260H260L250 340Z" fill="#FFA000"/>
<path d="M290 440C290 451.05 281.04 460 270 460H210C198.96 460 190 451.05 190 440V370C190 358.95 230 340 230 340H250C250 340 290 358.95 290 370V440Z" fill="#FBC02D"/>
<path d="M250 340V350H230V340L220 260H260L250 340ZM197.1 249.71C192.04 248.42 72.9202 217.35 53.2002 122.03C44.4302 79.58 55.2902 55.08 65.9602 41.99C79.1502 25.78 97.1302 20 109.55 20C126.16 20 139 24.57 147.73 33.59C158.71 44.96 158.55 58.79 158.51 60.35C158.51 76.07 147.86 100 118.51 100C117.28 100 110.95 99.82 104.37 96.35C94.8002 91.33 89.5502 81.95 89.5502 70H109.55C109.55 75.74 111.78 77.64 113.7 78.67C115.98 79.86 118.5 80 118.52 80C137.55 80 138.52 63.33 138.52 60C138.52 59.51 138.5 52.68 133.17 47.31C128.34 42.46 120.39 40 109.55 40C103.53 40 90.8602 43.09 81.4602 54.61C70.1002 68.57 67.1002 90.47 72.7902 117.97C89.9902 201.15 200.87 230.02 201.99 230.29L197.1 249.71ZM280.9 250L274.91 230.92C275.91 230.63 375.62 198.3 403.98 117.15C412.67 92.35 412.07 72.74 402.18 58.83C392.63 45.35 376.44 40.47 367.9 40.47C338.24 40.47 337.9 59.65 337.9 60.47C337.98 65.08 339.64 80.47 357.9 80.47C362.4 80.35 367.9 78.52 367.9 70.47H387.9C387.9 92.46 369.96 100.47 357.9 100.47C328.54 100.47 317.9 76.52 317.9 60.47C317.9 46.64 328.35 20.47 367.9 20.47C383.11 20.47 405.44 28.83 418.51 47.23C428.02 60.63 436.5 84.81 422.89 123.75C391.15 214.49 285.39 248.59 280.9 250Z" fill="#57528F"/>
<path d="M290 390H190V370C190 358.96 230 340 230 340H250C250 340 290 358.96 290 370V390ZM340 30C340 110 319.16 280 240 280C160.84 280 140 110 140 30H340Z" fill="#8683AD"/>
<path d="M250 190H230V116.09L210 122.75V105.15L248.13 90H250V190Z" fill="#57528F"/>
<path d="M170 380H310V460H170V380Z" fill="#57528F"/>
<path d="M190 410H290V430H190V410Z" fill="#8683AC"/>
</svg>
